max v2;#N vpatcher 85 44 914 560;#P origin -283 -629;#P window setfont "Sans Serif" 9.;#P hidden newex 396 236 206 196617 variedit /metaswitch.4/label /instruments;#B color 12;#P window setfont "Sans Serif" 12.;#P message 396 137 122 196620 <none>;#P window setfont "Sans Serif" 9.;#P hidden newex 269 255 206 196617 variedit /metaswitch.3/label /instruments;#B color 12;#P window setfont "Sans Serif" 12.;#P message 269 137 122 196620 <none>;#P window setfont "Sans Serif" 9.;#P hidden newex 141 274 206 196617 variedit /metaswitch.2/label /instruments;#B color 12;#P window setfont "Sans Serif" 12.;#P message 141 137 122 196620 <none>;#P window setfont "Sans Serif" 9.;#P hidden newex 12 293 206 196617 variedit /metaswitch.1/label /instruments;#B color 12;#P window setfont "Sans Serif" 12.;#P message 12 137 122 196620 <none>;#P window setfont "Sans Serif" 9.;#P hidden newex 520 133 200 196617 variedit /metafader.2/label /instruments;#B color 12;#P hidden newex 520 114 200 196617 variedit /metafader.1/label /instruments;#B color 12;#P window setfont "Sans Serif" 12.;#P message 269 104 234 196620 <none>;#P message 269 72 234 196620 "toto a deux and";#P toggle 429 167 28 0;#P toggle 291 167 28 0;#P toggle 163 167 28 0;#P toggle 54 167 28 0;#P window setfont "Sans Serif" 9.;#P hidden newex 429 199 179 196617 variedit /metaswitch.4 /instruments;#B color 12;#P hidden newex 291 217 179 196617 variedit /metaswitch.3 /instruments;#B color 12;#P hidden newex 163 235 179 196617 variedit /metaswitch.2 /instruments;#B color 12;#P hidden newex 54 253 179 196617 variedit /metaswitch.1 /instruments;#B color 12;#P hidden newex 520 97 173 196617 variedit /metafader.2 /instruments;#B color 12;#P user multiSlider 11 101 228 27 0. 1. 1 2936 47 0 0 2 0 0 0;#M frgb 0 0 0;#M brgb 255 255 255;#M rgb2 127 127 127;#M rgb3 0 0 0;#M rgb4 37 52 91;#M rgb5 74 105 182;#M rgb6 112 158 18;#M rgb7 149 211 110;#M rgb8 187 9 201;#M rgb9 224 62 37;#M rgb10 7 114 128;#P hidden newex 520 78 173 196617 variedit /metafader.1 /instruments;#B color 12;#P user multiSlider 11 69 228 27 0. 1. 1 2936 47 0 0 2 0 0 0;#M frgb 0 0 0;#M brgb 255 255 255;#M rgb2 127 127 127;#M rgb3 0 0 0;#M rgb4 37 52 91;#M rgb5 74 105 182;#M rgb6 112 158 18;#M rgb7 149 211 110;#M rgb8 187 9 201;#M rgb9 224 62 37;#M rgb10 7 114 128;#P hidden connect 1 2 0 0;#P hidden connect 3 2 2 0;#P hidden connect 17 0 16 0;#P hidden connect 16 0 17 0;#P hidden connect 4 0 8 0;#P hidden connect 8 0 4 0;#P hidden connect 19 0 18 0;#P hidden connect 18 0 19 0;#P hidden connect 5 0 9 0;#P hidden connect 9 0 5 0;#P hidden connect 14 0 12 0;#P hidden connect 15 0 13 0;#P hidden connect 21 0 20 0;#P hidden connect 20 0 21 0;#P hidden connect 6 0 10 0;#P hidden connect 10 0 6 0;#P hidden connect 23 0 22 0;#P hidden connect 22 0 23 0;#P hidden connect 7 0 11 0;#P hidden connect 11 0 7 0;#P hidden connect 0 0 1 0;#P hidden connect 2 0 3 0;#P hidden connect 12 0 14 0;#P hidden connect 13 0 15 0;#P pop;